<svg width="18" height="23" viewBox="0 0 18 23" fill="none" xmlns="http://www.w3.org/2000/svg">
<path d="M10.3671 22.2894C8.36801 22.2894 6.5961 21.8351 5.05134 20.881C3.50659 19.9269 2.23444 18.6547 1.3712 17.0645C0.507952 15.4743 0.00817871 13.657 0.00817871 11.6579C0.00817871 9.61336 0.417078 7.79601 1.28032 6.20582C2.14357 4.61564 3.27942 3.34349 4.7333 2.38938C6.18719 1.4807 7.91368 0.980927 9.8219 0.980927C11.4575 0.980927 12.9568 1.29896 14.2744 1.93504C15.6374 2.57111 16.7733 3.52522 17.7728 4.79737C17.9546 5.06997 18.0454 5.29714 18 5.61518C17.9546 5.88779 17.7728 6.11495 17.5002 6.29669C17.2731 6.47843 17.0005 6.52386 16.7278 6.52386C16.4552 6.47843 16.2281 6.34212 16.0009 6.06952C14.3653 4.11586 12.3208 3.16175 9.77647 3.16175C8.27715 3.16175 6.95956 3.52522 5.82371 4.25217C4.68786 4.97911 3.82463 5.97865 3.18855 7.2508C2.55248 8.52295 2.23444 9.97683 2.23444 11.6579C2.23444 13.2481 2.5979 14.702 3.27941 15.9741C3.96092 17.2463 4.91504 18.2912 6.14175 19.0182C7.36847 19.7906 8.73148 20.154 10.3671 20.154C11.4121 20.154 12.4116 20.0177 13.3203 19.6997C14.229 19.3816 15.0468 18.9273 15.7283 18.2912C15.9555 18.1095 16.2281 17.9732 16.5007 17.9278C16.7733 17.8823 17.0005 17.9732 17.2276 18.2004C17.5002 18.4275 17.6365 18.7001 17.6365 18.9727C17.6365 19.2453 17.5457 19.5179 17.3185 19.6997C15.4557 21.4262 13.1386 22.2894 10.3671 22.2894Z" fill="#FFFFFF"/>
</svg>
