<svg width="22" height="31" viewBox="0 0 22 31" fill="none" xmlns="http://www.w3.org/2000/svg">
<path d="M2.33576 30.0622C1.79055 30.0622 1.29078 29.8805 0.927305 29.4716C0.563834 29.0627 0.33667 28.6083 0.33667 28.0631V2.2567C0.33667 1.66606 0.5184 1.21172 0.927305 0.848246C1.29078 0.484775 1.79055 0.30304 2.33576 0.30304H19.6006C20.1913 0.30304 20.6456 0.484775 21.0091 0.802812C21.3726 1.16628 21.5543 1.62062 21.5543 2.16583C21.5543 2.71103 21.3726 3.11994 21.0091 3.48341C20.6456 3.80145 20.1913 3.98318 19.6006 3.98318H4.33485V13.2063H15.2844C15.8751 13.2063 16.3294 13.388 16.6929 13.706C17.0563 14.0695 17.2381 14.4784 17.2381 15.0236C17.2381 15.5688 17.0563 15.9777 16.6929 16.3412C16.3294 16.7047 15.8751 16.841 15.2844 16.841H4.33485V26.3821H19.6006C20.1913 26.3821 20.6456 26.5638 21.0091 26.8819C21.3726 27.1999 21.5543 27.6542 21.5543 28.1994C21.5543 28.7446 21.3726 29.199 21.0091 29.5625C20.6456 29.9259 20.1913 30.0622 19.6006 30.0622H2.33576Z" fill="#FFFFFF"/>
</svg>
