<svg width="21" height="22" viewBox="0 0 21 22" fill="none" xmlns="http://www.w3.org/2000/svg">
<path d="M11.4066 21.1985C9.31667 21.1985 7.45388 20.7442 5.81825 19.8355C4.18263 18.9268 2.95592 17.7001 2.00181 16.1099C1.09313 14.5197 0.638794 12.7024 0.638794 10.6579C0.638794 8.56791 1.09313 6.75056 1.95637 5.16037C2.81962 3.57018 4.0009 2.34347 5.54566 1.43479C7.09041 0.526117 8.81689 0.0717773 10.8614 0.0717773C12.8151 0.0717773 14.4961 0.526116 15.95 1.38936C17.3585 2.2526 18.4489 3.47932 19.2213 5.02407C19.9936 6.56882 20.3571 8.34074 20.3571 10.3398C20.3571 10.7942 20.2208 11.1122 19.9028 11.4302C19.6302 11.7028 19.2213 11.8846 18.7215 11.8846H3.04679V9.06769H18.7669L17.2222 10.1581C17.1767 8.79508 16.9496 7.6138 16.4044 6.52339C15.9046 5.43297 15.1776 4.61516 14.2235 4.02452C13.2694 3.43388 12.1336 3.11585 10.816 3.11585C9.3621 3.11585 8.13538 3.43388 7.04497 4.11539C5.99999 4.7969 5.18218 5.66014 4.63698 6.84142C4.09177 7.97727 3.81917 9.29485 3.81917 10.7487C3.81917 12.2026 4.1372 13.4748 4.77327 14.6106C5.40935 15.7465 6.31803 16.6551 7.45388 17.2912C8.58973 17.9727 9.90731 18.2908 11.4066 18.2908C12.2244 18.2908 13.0877 18.1545 13.9509 17.8364C14.8142 17.5184 15.5411 17.1549 16.0409 16.746C16.4044 16.4734 16.7678 16.3371 17.1767 16.2917C17.5856 16.2917 17.9491 16.3825 18.2217 16.6551C18.5852 17.0186 18.8124 17.3821 18.8124 17.8364C18.8578 18.2453 18.6761 18.6088 18.2671 18.9268C17.4039 19.6083 16.3135 20.199 15.0413 20.6079C13.8146 20.9714 12.5879 21.1985 11.4066 21.1985Z" fill="#01EEF6"/>
</svg>
