<svg width="20" height="31" viewBox="0 0 20 31" fill="none" xmlns="http://www.w3.org/2000/svg">
<path d="M1.84192 21.8387C1.34215 21.8387 0.933241 21.7024 0.660638 21.3844C0.388034 21.0663 0.206299 20.7028 0.206299 20.2485V1.89322C0.206299 1.39345 0.342601 0.984541 0.660638 0.711938C0.933241 0.439334 1.34215 0.257599 1.84192 0.257599C2.34169 0.257599 2.70517 0.393901 3.02321 0.711938C3.29581 0.984541 3.47755 1.39345 3.47755 1.89322V20.2031C3.47755 20.6574 3.34124 21.0209 3.02321 21.3389C2.70517 21.657 2.34169 21.8387 1.84192 21.8387ZM1.84192 30.0622C1.34215 30.0622 0.933241 29.9259 0.660638 29.6079C0.388034 29.3353 0.206299 28.9264 0.206299 28.4266V10.8437C0.206299 10.3439 0.342601 9.93501 0.660638 9.66241C0.933241 9.38981 1.34215 9.20807 1.84192 9.20807C2.34169 9.20807 2.70517 9.34437 3.02321 9.66241C3.29581 9.93501 3.47755 10.3439 3.47755 10.8437V28.472C3.47755 28.9718 3.34124 29.3353 3.02321 29.6533C2.70517 29.9259 2.34169 30.0622 1.84192 30.0622ZM18.0164 30.0622C17.5166 30.0622 17.1531 29.9259 16.8351 29.6079C16.5171 29.2898 16.3808 28.9264 16.3808 28.472V18.7492C16.3808 17.2044 16.1082 15.9323 15.5175 14.9327C14.9269 13.9332 14.1545 13.2063 13.155 12.7065C12.1554 12.2067 11.0196 11.9795 9.74742 11.9795C8.56614 11.9795 7.47573 12.2067 6.52162 12.7065C5.56751 13.1608 4.79513 13.7969 4.24993 14.6147C3.70472 15.4325 3.43211 16.3412 3.43211 17.3862H1.20585C1.25128 15.796 1.66018 14.3421 2.47799 13.1154C3.2958 11.8887 4.34079 10.8437 5.7038 10.1168C7.06682 9.38981 8.56614 9.02634 10.2018 9.02634C11.9737 9.02634 13.5639 9.38981 14.9723 10.1622C16.3808 10.9346 17.5166 12.025 18.3344 13.4789C19.1522 14.9327 19.5611 16.7047 19.5611 18.8401V28.5629C19.5611 29.0172 19.4248 29.3807 19.1068 29.6988C18.8796 29.8805 18.4707 30.0622 18.0164 30.0622Z" fill="#FFFFFF"/>
</svg>
