<svg width="5" height="30" viewBox="0 0 5 30" fill="none" xmlns="http://www.w3.org/2000/svg">
<path d="M2.14804 4.20989C1.60284 4.20989 1.10307 4.02816 0.694165 3.61925C0.28526 3.21035 0.103516 2.71057 0.103516 2.11993C0.103516 1.48386 0.330696 0.984086 0.739602 0.620615C1.14851 0.257144 1.64827 0.0754089 2.19348 0.0754089C2.73869 0.0754089 3.19303 0.257144 3.60193 0.620615C4.01084 0.984086 4.23801 1.48386 4.23801 2.11993C4.23801 2.71057 4.05628 3.21035 3.64737 3.61925C3.23847 4.02816 2.73868 4.20989 2.14804 4.20989ZM2.19348 29.0622C1.73914 29.0622 1.37567 28.9259 1.10307 28.6533C0.830464 28.3807 0.694165 28.0172 0.694165 27.5629V9.66196C0.694165 9.20762 0.830464 8.84415 1.10307 8.57154C1.37567 8.29894 1.73914 8.16264 2.19348 8.16264C2.64782 8.16264 2.96586 8.29894 3.23847 8.57154C3.51107 8.84415 3.64737 9.20762 3.64737 9.66196V27.5629C3.64737 28.0172 3.51107 28.3807 3.23847 28.6533C2.96586 28.9259 2.64782 29.0622 2.19348 29.0622Z" fill="#FFFFFF"/>
</svg>
