<svg width="19" height="67" viewBox="0 0 19 67" fill="none" xmlns="http://www.w3.org/2000/svg">
<path d="M13.1 66.1C10.7 66.1 8.7 65.5 6.8 64.2C5 62.9 3.5 61.1 2.5 58.9C1.5 56.6 0.899994 54 0.899994 51.1V4.3C0.899994 3.2 1.19999 2.3 1.89999 1.6C2.59999 0.9 3.50001 0.6 4.60001 0.6C5.80001 0.6 6.69999 1 7.39999 1.6C8.09999 2.3 8.39999 3.2 8.39999 4.3V51C8.39999 53.2 8.8 55 9.7 56.4C10.6 57.8 11.6 58.5 12.9 58.5H15C16.1 58.5 16.9 58.9 17.5 59.5C18.1 60.2 18.4 61.1 18.4 62.3C18.4 63.4 17.9 64.3 17 65C16.1 65.7 14.9 66 13.4 66H13.1V66.1Z" fill="#01EEF6"/>
</svg>
