<svg width="53" height="39" viewBox="0 0 53 39" fill="none" xmlns="http://www.w3.org/2000/svg">
<path d="M50.4316 25.6574C49.114 25.6574 48.0236 26.7478 48.0236 28.0654C48.0236 29.383 46.9332 30.4734 45.6156 30.4734C44.298 30.4734 43.2076 29.383 43.2076 28.0654V10.4371C43.2076 4.7124 38.5734 0.0327148 32.8033 0.0327148H31.2131C29.4412 0.0327148 27.3966 0.668789 26.2608 1.25943C25.1704 1.8955 22.6715 3.30395 21.4448 4.80327C18.9005 4.89414 13.4484 4.80327 13.4484 4.80327L8.63244 4.93957C3.77101 5.80282 0 10.0736 0 15.2531V35.7892C0 37.1068 1.09041 38.1972 2.408 38.1972C3.72558 38.1972 4.81599 37.1068 4.81599 35.7892V29.6102H28.8505V35.7892C28.8505 37.1068 29.9409 38.1972 31.2585 38.1972C32.5761 38.1972 33.6665 37.1068 33.6665 35.7892V20.8414H38.4825V28.0654C38.4825 32.0182 41.7083 35.2894 45.7065 35.2894C49.7047 35.2894 52.9305 32.0636 52.9305 28.0654C52.8396 26.7024 51.7492 25.6574 50.4316 25.6574ZM28.8051 24.8396H4.81599V15.2531C4.81599 12.1636 7.31486 9.6647 10.4044 9.6647H11.0859H20.8542C20.8542 9.9373 20.8087 10.2099 20.8087 10.4825C20.8087 15.3894 24.2163 19.5238 28.8051 20.6143V24.8396ZM38.4371 16.0254H31.2131C28.1236 16.0254 25.6247 13.5266 25.6247 10.4371C25.6247 7.34757 28.1236 4.84871 31.2131 4.84871H32.8033C35.8928 4.84871 38.3916 7.34757 38.3916 10.4371V16.0254H38.4371Z" fill="#FFFFFF"/>
</svg>
