<svg width="22" height="31" viewBox="0 0 22 31" fill="none" xmlns="http://www.w3.org/2000/svg">
<path d="M1.94507 30.9673C1.4453 30.9673 1.03639 30.831 0.763787 30.5129C0.491184 30.2403 0.309448 29.8314 0.309448 29.3317V11.5216C0.354882 9.52249 0.809224 7.75057 1.7179 6.16039C2.62658 4.5702 3.89872 3.29805 5.48891 2.38938C7.0791 1.4807 8.85101 0.980927 10.8501 0.980927C12.8946 0.980927 14.712 1.43526 16.3022 2.38938C17.8924 3.29805 19.1645 4.5702 20.0732 6.20582C20.9819 7.79601 21.4816 9.61336 21.4816 11.6579C21.4816 13.657 21.0273 15.4743 20.1641 17.0645C19.3008 18.6547 18.0741 19.9268 16.5748 20.881C15.03 21.7896 13.3035 22.2894 11.3953 22.2894C9.7597 22.2894 8.26038 21.9259 6.89736 21.2444C5.53435 20.5629 4.44393 19.6088 3.62612 18.473V29.3771C3.62612 29.8769 3.48981 30.2858 3.17178 30.5584C2.76287 30.831 2.39941 30.9673 1.94507 30.9673ZM10.8047 19.3362C12.2131 19.3362 13.4853 19.0182 14.6211 18.3367C15.757 17.6552 16.6202 16.7465 17.3017 15.5652C17.9378 14.3839 18.2558 13.0663 18.2558 11.6579C18.2558 10.204 17.9378 8.88642 17.3017 7.70514C16.6656 6.56929 15.757 5.61518 14.6211 4.93367C13.4853 4.25217 12.2131 3.88869 10.8047 3.88869C9.44166 3.88869 8.16951 4.25217 7.03366 4.93367C5.89781 5.61518 5.03457 6.52386 4.3985 7.70514C3.76242 8.84099 3.44438 10.1586 3.44438 11.6579C3.44438 13.1118 3.76242 14.4294 4.3985 15.5652C5.03457 16.7465 5.89781 17.6552 7.03366 18.3367C8.16951 19.0182 9.39623 19.3362 10.8047 19.3362Z" fill="#01EEF6"/>
</svg>
